<svg width="58" height="58" viewBox="0 0 58 58" fill="none" xmlns="http://www.w3.org/2000/svg">
<g filter="url(#filter0_d_31_385)">
<path d="M44.36 8.83997H13.64C10.9904 8.83997 8.83997 10.9904 8.83997 13.64V44.36C8.83997 47.0096 10.9904 49.16 13.64 49.16H44.36C47.0096 49.16 49.16 47.0096 49.16 44.36V13.64C49.16 10.9904 47.0096 8.83997 44.36 8.83997ZM40.52 23.24H38.6C36.5456 23.24 35.72 23.72 35.72 25.16V28.04H40.52L39.56 32.84H35.72V47.24H30.92V32.84H27.08V28.04H30.92V25.16C30.92 21.32 32.84 18.44 36.68 18.44C39.464 18.44 40.52 19.4 40.52 19.4V23.24Z" fill="#FFFEFE"/>
</g>
<defs>
<filter id="filter0_d_31_385" x="0.839966" y="0.839966" width="56.3199" height="56.3199" filterUnits="userSpaceOnUse" color-interpolation-filters="sRGB">
<feFlood flood-opacity="0" result="BackgroundImageFix"/>
<feColorMatrix in="SourceAlpha" type="matrix" values="0 0 0 0 0 0 0 0 0 0 0 0 0 0 0 0 0 0 127 0" result="hardAlpha"/>
<feOffset/>
<feGaussianBlur stdDeviation="4"/>
<feComposite in2="hardAlpha" operator="out"/>
<feColorMatrix type="matrix" values="0 0 0 0 0 0 0 0 0 0 0 0 0 0 0 0 0 0 0.15 0"/>
<feBlend mode="normal" in2="BackgroundImageFix" result="effect1_dropShadow_31_385"/>
<feBlend mode="normal" in="SourceGraphic" in2="effect1_dropShadow_31_385" result="shape"/>
</filter>
</defs>
</svg>
